<mxfile host="app.diagrams.net" modified="2024-11-04T03:08:46.043Z" agent="Mozilla/5.0 (Windows NT 10.0; Win64; x64) AppleWebKit/537.36 (KHTML, like Gecko) Chrome/130.0.0.0 Safari/537.36" etag="zgzhppwPRmZdQERcR8gu" version="21.6.8" type="device">
  <diagram name="Page-1" id="ZCsaXEoKkD66KnKgalCW">
    <mxGraphModel dx="794" dy="420" grid="1" gridSize="10" guides="1" tooltips="1" connect="1" arrows="1" fold="1" page="1" pageScale="1" pageWidth="850" pageHeight="1100" math="0" shadow="0">
      <root>
        <mxCell id="0" />
        <mxCell id="1" parent="0" />
        <mxCell id="6oyygaRJ2Ywu5vzmZ-W5-3" style="edgeStyle=orthogonalEdgeStyle;rounded=0;orthogonalLoop=1;jettySize=auto;html=1;entryX=0;entryY=0.5;entryDx=0;entryDy=0;" edge="1" parent="1" source="6oyygaRJ2Ywu5vzmZ-W5-1" target="6oyygaRJ2Ywu5vzmZ-W5-2">
          <mxGeometry relative="1" as="geometry" />
        </mxCell>
        <mxCell id="6oyygaRJ2Ywu5vzmZ-W5-1" value="Idle" style="ellipse;whiteSpace=wrap;html=1;aspect=fixed;" vertex="1" parent="1">
          <mxGeometry x="170" y="180" width="80" height="80" as="geometry" />
        </mxCell>
        <mxCell id="6oyygaRJ2Ywu5vzmZ-W5-6" style="edgeStyle=orthogonalEdgeStyle;rounded=0;orthogonalLoop=1;jettySize=auto;html=1;" edge="1" parent="1">
          <mxGeometry relative="1" as="geometry">
            <mxPoint x="374" y="220" as="sourcePoint" />
            <mxPoint x="504" y="150" as="targetPoint" />
            <Array as="points">
              <mxPoint x="484" y="220" />
              <mxPoint x="484" y="150" />
            </Array>
          </mxGeometry>
        </mxCell>
        <mxCell id="6oyygaRJ2Ywu5vzmZ-W5-12" style="edgeStyle=orthogonalEdgeStyle;rounded=0;orthogonalLoop=1;jettySize=auto;html=1;exitX=0.5;exitY=1;exitDx=0;exitDy=0;entryX=0;entryY=0.5;entryDx=0;entryDy=0;" edge="1" parent="1" source="6oyygaRJ2Ywu5vzmZ-W5-2" target="6oyygaRJ2Ywu5vzmZ-W5-5">
          <mxGeometry relative="1" as="geometry" />
        </mxCell>
        <mxCell id="6oyygaRJ2Ywu5vzmZ-W5-2" value="Flying" style="ellipse;whiteSpace=wrap;html=1;aspect=fixed;" vertex="1" parent="1">
          <mxGeometry x="290" y="180" width="80" height="80" as="geometry" />
        </mxCell>
        <mxCell id="6oyygaRJ2Ywu5vzmZ-W5-10" style="edgeStyle=orthogonalEdgeStyle;rounded=0;orthogonalLoop=1;jettySize=auto;html=1;exitX=0.5;exitY=0;exitDx=0;exitDy=0;entryX=0.5;entryY=0;entryDx=0;entryDy=0;" edge="1" parent="1" source="6oyygaRJ2Ywu5vzmZ-W5-4" target="6oyygaRJ2Ywu5vzmZ-W5-2">
          <mxGeometry relative="1" as="geometry">
            <Array as="points">
              <mxPoint x="330" y="110" />
            </Array>
          </mxGeometry>
        </mxCell>
        <mxCell id="6oyygaRJ2Ywu5vzmZ-W5-4" value="Charging" style="ellipse;whiteSpace=wrap;html=1;aspect=fixed;" vertex="1" parent="1">
          <mxGeometry x="500" y="110" width="80" height="80" as="geometry" />
        </mxCell>
        <mxCell id="6oyygaRJ2Ywu5vzmZ-W5-14" style="edgeStyle=orthogonalEdgeStyle;rounded=0;orthogonalLoop=1;jettySize=auto;html=1;exitX=0.5;exitY=0;exitDx=0;exitDy=0;entryX=0.5;entryY=1;entryDx=0;entryDy=0;" edge="1" parent="1" source="6oyygaRJ2Ywu5vzmZ-W5-5" target="6oyygaRJ2Ywu5vzmZ-W5-4">
          <mxGeometry relative="1" as="geometry" />
        </mxCell>
        <mxCell id="6oyygaRJ2Ywu5vzmZ-W5-5" value="Waiting to&lt;br&gt;Charge" style="ellipse;whiteSpace=wrap;html=1;aspect=fixed;" vertex="1" parent="1">
          <mxGeometry x="500" y="258" width="80" height="80" as="geometry" />
        </mxCell>
        <mxCell id="6oyygaRJ2Ywu5vzmZ-W5-9" value="isBatteryDead &amp;amp;&amp;amp;&lt;br&gt;isChargerAvailable" style="text;html=1;align=center;verticalAlign=middle;resizable=0;points=[];autosize=1;strokeColor=none;fillColor=none;" vertex="1" parent="1">
          <mxGeometry x="367" y="178" width="120" height="40" as="geometry" />
        </mxCell>
        <mxCell id="6oyygaRJ2Ywu5vzmZ-W5-11" value="isBatteryCharged" style="text;html=1;align=center;verticalAlign=middle;resizable=0;points=[];autosize=1;strokeColor=none;fillColor=none;" vertex="1" parent="1">
          <mxGeometry x="367" y="82" width="120" height="30" as="geometry" />
        </mxCell>
        <mxCell id="6oyygaRJ2Ywu5vzmZ-W5-13" value="isBatteryDead &amp;amp;&amp;amp;&lt;br&gt;! isChargerAvailable" style="text;html=1;align=center;verticalAlign=middle;resizable=0;points=[];autosize=1;strokeColor=none;fillColor=none;" vertex="1" parent="1">
          <mxGeometry x="350" y="258" width="130" height="40" as="geometry" />
        </mxCell>
        <mxCell id="6oyygaRJ2Ywu5vzmZ-W5-15" value="isChargerAvailable" style="text;html=1;align=center;verticalAlign=middle;resizable=0;points=[];autosize=1;strokeColor=none;fillColor=none;" vertex="1" parent="1">
          <mxGeometry x="540" y="205" width="120" height="30" as="geometry" />
        </mxCell>
        <mxCell id="6oyygaRJ2Ywu5vzmZ-W5-16" value="&lt;i&gt;add aircraft to charging line&lt;/i&gt;" style="text;html=1;align=center;verticalAlign=middle;resizable=0;points=[];autosize=1;strokeColor=none;fillColor=none;" vertex="1" parent="1">
          <mxGeometry x="330" y="298" width="170" height="30" as="geometry" />
        </mxCell>
        <mxCell id="6oyygaRJ2Ywu5vzmZ-W5-17" value="&lt;i&gt;consume a charger&lt;/i&gt;" style="text;html=1;align=center;verticalAlign=middle;resizable=0;points=[];autosize=1;strokeColor=none;fillColor=none;" vertex="1" parent="1">
          <mxGeometry x="360" y="218" width="130" height="30" as="geometry" />
        </mxCell>
        <mxCell id="6oyygaRJ2Ywu5vzmZ-W5-18" value="&lt;i&gt;free a charger&lt;/i&gt;" style="text;html=1;align=center;verticalAlign=middle;resizable=0;points=[];autosize=1;strokeColor=none;fillColor=none;" vertex="1" parent="1">
          <mxGeometry x="370" y="112" width="100" height="30" as="geometry" />
        </mxCell>
        <mxCell id="6oyygaRJ2Ywu5vzmZ-W5-19" value="&lt;i&gt;consume a charger&lt;/i&gt;" style="text;html=1;align=center;verticalAlign=middle;resizable=0;points=[];autosize=1;strokeColor=none;fillColor=none;" vertex="1" parent="1">
          <mxGeometry x="535" y="225" width="130" height="30" as="geometry" />
        </mxCell>
      </root>
    </mxGraphModel>
  </diagram>
</mxfile>
